<svg width="1440" height="1034" viewBox="0 0 1440 1034" fill="none" xmlns="http://www.w3.org/2000/svg">
<rect width="1438" height="465" transform="matrix(-1 0 0 1 1438.77 568)" fill="#A0C1E8"/>
<path d="M0.382812 545.999C0.382812 545.999 1068.84 16.6825 1146.21 10.534C1223.4 4.3856 1092.9 17.5437 1438.88 159.5V588.5L0.382812 593.499V545.999Z" fill="#A0C1E8"/>
<path d="M1439.39 151.143C1102.23 12.8034 1226.62 7.63747 1150.97 7.99914L1220.28 171.837C1226.62 186.846 1210.87 201.855 1194.94 195.888L1113.72 165.869C1102.59 161.71 1087.71 162.641 1094.89 181.643C1094.89 181.643 1139.88 238.143 1139.38 262.143C1138.88 286.143 1093.56 298.143 1070.88 321.143C1048.2 344.143 916.884 851.643 916.884 851.643C916.884 851.643 718.647 1033.14 817.765 1033.14C916.882 1033.14 1439.39 1033.14 1439.39 1033.14V538.643V151.143Z" fill="#E8ECF9"/>
<path d="M1062.85 26.9928C1033.66 41.6406 1004.48 56.2883 975.296 70.936C972.416 72.3827 969.344 74.0102 966.464 75.6377C949.376 85.5837 956.288 110.72 976.256 110.901C990.08 111.082 1003.9 107.827 1015.62 101.136C1031.55 92.0938 1043.26 77.9886 1058.43 67.681C1073.6 57.5541 1095.1 51.9482 1110.08 62.075C1120.45 69.1276 1125.06 81.967 1137.15 87.5729C1139.84 88.8388 1142.72 89.5621 1145.79 89.3813C1160.96 88.6579 1162.69 70.5743 1174.59 65.1493C1182.27 61.7134 1191.49 64.7876 1198.21 69.6702C1204.93 74.5527 1210.11 81.0628 1217.02 85.9454C1223.94 90.6472 1233.34 93.5405 1240.83 89.5621C1245.06 87.3921 1247.74 83.4137 1251.97 81.0628C1258.11 77.6269 1266.37 78.5311 1272.7 81.6053C1279.23 84.6796 1284.42 89.5621 1289.79 94.083C1312.45 113.071 1340.67 126.272 1370.43 131.878C1376.38 132.963 1382.72 133.867 1388.48 131.154C1391.36 129.708 1393.86 127.357 1394.62 124.283C1396.35 117.411 1389.82 112.167 1384.06 108.369C1344.9 82.8712 1303.81 60.0859 1261.38 39.8322C1224.32 22.2911 1180.74 -3.56846 1138.11 0.409936C1111.04 3.12248 1086.27 15.2385 1062.85 26.9928Z" fill="white"/>
</svg>
