<svg width="1439" height="1033" viewBox="0 0 1439 1033" fill="none" xmlns="http://www.w3.org/2000/svg">
<rect y="568" width="1438" height="465" fill="#A0C1E8"/>
<path d="M1438.38 545.999C1438.38 545.999 369.93 16.6825 292.554 10.534C215.371 4.3856 345.866 17.5437 -0.117188 159.5V588.5L1438.38 593.499V545.999Z" fill="#A0C1E8"/>
<path d="M-0.61969 151.143C336.532 12.8034 212.149 7.63747 287.797 7.99914L218.485 171.837C212.149 186.846 227.893 201.855 243.829 195.888L325.044 165.869C336.18 161.71 351.056 162.641 343.88 181.643C343.88 181.643 298.883 238.143 299.383 262.143C299.883 286.143 345.203 298.143 367.883 321.143C390.563 344.143 521.882 851.643 521.882 851.643C521.882 851.643 720.119 1033.14 621.001 1033.14C521.883 1033.14 -0.61969 1033.14 -0.61969 1033.14V538.643V151.143Z" fill="#E8ECF9"/>
<path d="M375.917 26.9928C405.101 41.6406 434.285 56.2883 463.469 70.936C466.349 72.3827 469.421 74.0102 472.301 75.6377C489.389 85.5837 482.477 110.72 462.509 110.901C448.685 111.082 434.861 107.827 423.149 101.136C407.213 92.0938 395.501 77.9886 380.333 67.681C365.165 57.5541 343.661 51.9482 328.686 62.075C318.318 69.1276 313.71 81.967 301.614 87.5729C298.926 88.8388 296.046 89.5621 292.974 89.3813C277.806 88.6579 276.078 70.5743 264.174 65.1493C256.494 61.7134 247.278 64.7876 240.558 69.6702C233.838 74.5527 228.654 81.0628 221.742 85.9454C214.83 90.6471 205.422 93.5405 197.934 89.5621C193.71 87.3921 191.022 83.4137 186.798 81.0628C180.654 77.6269 172.398 78.5311 166.062 81.6053C159.534 84.6796 154.35 89.5621 148.974 94.083C126.318 113.071 98.094 126.272 68.334 131.878C62.382 132.963 56.0461 133.867 50.2861 131.154C47.4061 129.708 44.9101 127.357 44.1421 124.283C42.4141 117.411 48.9421 112.167 54.7021 108.369C93.87 82.8712 134.958 60.0859 177.39 39.8322C214.446 22.2911 258.03 -3.56846 300.654 0.409936C327.725 3.12248 352.493 15.2385 375.917 26.9928Z" fill="white"/>
</svg>
