<svg width="188" height="81" viewBox="0 0 188 81" fill="none" xmlns="http://www.w3.org/2000/svg">
<path d="M186.276 52.4496C182.841 46.8436 171.99 47.7478 171.267 54.2579C169.64 42.6844 158.428 35.0893 147.216 37.8018C140.887 39.2485 134.919 42.5036 130.217 47.2053C136.366 39.791 133.291 26.7708 124.43 23.1541C116.655 19.8991 107.07 24.7816 103.996 32.3768C105.804 21.3458 100.56 9.41057 90.9758 3.62382C80.3065 -2.70545 65.2971 -0.535413 56.7978 8.50639C49.3835 16.4632 47.5751 28.76 51.9152 38.706C47.9368 33.6426 40.5225 30.9301 34.3741 32.9193C26.5981 35.451 21.5347 44.8544 23.8856 52.6304C24.4281 54.0771 24.9706 55.5238 25.8748 56.7896C21.5347 56.9705 17.1947 57.3321 12.8546 58.0555C7.06783 59.1405 0.376901 61.6722 0.0152284 68.0015C-0.165608 70.8948 1.28108 73.7882 3.45112 75.7774C7.97202 79.7558 13.9396 80.1175 19.7264 80.1175C67.2863 81.5642 114.846 79.7558 162.225 74.8732C168.735 74.1499 175.607 73.2457 181.032 69.4482C186.638 65.8314 189.712 58.0555 186.276 52.4496Z" fill="white"/>
</svg>
