<svg width="109" height="64" viewBox="0 0 109 64" fill="none" xmlns="http://www.w3.org/2000/svg">
<path d="M107.778 52.4338C106.874 49.7213 103.8 47.9129 100.907 48.0938C98.0131 48.2746 95.3006 49.7213 93.1306 51.7105C95.1198 46.1046 90.9605 39.4136 85.1738 38.5094C81.7379 37.9669 78.1212 39.5945 75.9512 42.307C77.7595 37.0628 78.6637 31.6377 77.3978 26.2126C75.4086 18.7983 66.186 12.8307 59.8567 17.1708C58.41 18.075 57.325 19.3408 56.6017 20.7875C55.5167 17.8941 54.2508 15.1816 52.4425 12.6499C44.8474 1.61888 28.7529 -3.98703 17.7219 3.24641C9.40345 8.67149 6.32924 19.8833 7.77593 29.6485C8.31844 32.5419 9.04176 35.4352 10.1268 38.1478C4.88253 39.7753 0.180836 44.2962 0 49.7213C0 54.9655 4.15922 59.4864 8.86096 61.4756C13.7435 63.4648 18.9878 63.4648 24.232 63.284C47.1982 63.1032 70.3452 62.7415 93.3114 62.5607C96.7473 62.5607 100.364 62.3798 103.438 60.9331C106.512 59.3056 108.863 55.6889 107.778 52.4338Z" fill="white"/>
</svg>
