<svg width="182" height="75" viewBox="0 0 182 75" fill="none" xmlns="http://www.w3.org/2000/svg">
<path d="M181.119 58.3994C175.694 56.7719 169.545 59.1227 166.471 63.8245C169.726 57.8569 168.46 50.0809 163.758 45.3792C150.377 42.305 135.548 51.3468 132.112 64.5478C135.005 52.7935 126.687 39.5924 114.752 37.2416C104.806 35.0715 93.9557 41.22 89.6156 50.4426C93.0515 37.6032 91.6047 23.1363 83.6479 12.6478C74.6061 0.712665 56.1609 -4.1699 43.6832 4.14856C34.4606 10.297 31.0247 24.7639 36.269 34.529C13.8453 19.3388 -24.6729 66.7178 22.1637 72.1429C66.2877 77.2063 113.848 72.6854 158.333 72.6854C163.397 72.6854 168.822 72.6854 173.343 70.5154C178.044 68.3454 181.842 63.4628 181.119 58.3994Z" fill="white"/>
</svg>
