<svg width="1440" height="1161" viewBox="0 0 1440 1161" fill="none" xmlns="http://www.w3.org/2000/svg">
<rect width="1438" height="465" transform="matrix(-1 0 0 1 1439.77 568)" fill="#A0C1E8"/>
<path d="M1.38281 545.999C1.38281 545.999 1069.84 16.6825 1147.21 10.534C1224.4 4.3856 1093.9 17.5437 1439.88 159.5V588.5L1.38281 593.499V545.999Z" fill="#A0C1E8"/>
<path d="M1440.39 151.143C1103.23 12.8034 1227.62 7.63747 1151.97 7.99914L1221.28 171.837C1227.62 186.846 1211.87 201.855 1195.94 195.888L1114.72 165.869C1103.59 161.71 1088.71 162.641 1095.89 181.643C1095.89 181.643 1140.88 238.143 1140.38 262.143C1139.88 286.143 1094.56 298.143 1071.88 321.143C1049.2 344.143 917.884 851.643 917.884 851.643C917.884 851.643 719.647 1033.14 818.765 1033.14C917.882 1033.14 1440.39 1033.14 1440.39 1033.14V538.643V151.143Z" fill="#E8ECF9"/>
<path d="M1063.85 26.9928C1034.66 41.6406 1005.48 56.2883 976.296 70.936C973.416 72.3827 970.344 74.0102 967.464 75.6377C950.376 85.5837 957.288 110.72 977.256 110.901C991.08 111.082 1004.9 107.827 1016.62 101.136C1032.55 92.0938 1044.26 77.9886 1059.43 67.681C1074.6 57.5541 1096.1 51.9482 1111.08 62.075C1121.45 69.1276 1126.06 81.967 1138.15 87.5729C1140.84 88.8388 1143.72 89.5621 1146.79 89.3813C1161.96 88.6579 1163.69 70.5743 1175.59 65.1493C1183.27 61.7134 1192.49 64.7876 1199.21 69.6702C1205.93 74.5527 1211.11 81.0628 1218.02 85.9454C1224.94 90.6471 1234.34 93.5405 1241.83 89.5621C1246.06 87.3921 1248.74 83.4137 1252.97 81.0628C1259.11 77.6269 1267.37 78.5311 1273.7 81.6053C1280.23 84.6796 1285.42 89.5621 1290.79 94.083C1313.45 113.071 1341.67 126.272 1371.43 131.878C1377.38 132.963 1383.72 133.867 1389.48 131.154C1392.36 129.708 1394.86 127.357 1395.62 124.283C1397.35 117.411 1390.82 112.167 1385.06 108.369C1345.9 82.8712 1304.81 60.0859 1262.38 39.8322C1225.32 22.2911 1181.74 -3.56846 1139.11 0.409936C1112.04 3.12248 1087.27 15.2385 1063.85 26.9928Z" fill="white"/>
<rect width="1440" height="827.834" transform="matrix(-1 0 0 1 1440 333.166)" fill="#4A5FA8"/>
<path d="M1412.73 322.699C1340.38 295.623 1267.6 270.367 1194.17 247.159C931.805 164.11 663.215 105.862 392.263 73.5527C324.203 65.3616 256.143 58.9907 187.868 54.2126C126.25 49.8895 61.8337 37.4057 0 43.7765V333.165H1440C1430.98 329.525 1421.97 326.112 1412.73 322.699Z" fill="white"/>
<path d="M0 117.438V333.75L1435 344.276L1440 333.168C987.57 174.867 476.101 98.8275 0 117.438Z" fill="#4A5FA8"/>
</svg>
