<?xml version="1.0" encoding="utf-8"?>
<!-- Generator: Adobe Illustrator 23.0.1, SVG Export Plug-In . SVG Version: 6.00 Build 0)  -->
<svg version="1.1" id="Calque_1" xmlns="http://www.w3.org/2000/svg" xmlns:xlink="http://www.w3.org/1999/xlink" x="0px" y="0px"
	 viewBox="0 0 1440 1161" style="enable-background:new 0 0 1440 1161;" xml:space="preserve">
<style type="text/css">
	.st0{fill:#A0C1E8;}
	.st1{fill:#E8ECF9;}
	.st2{fill:#FFFFFF;}
	.st3{fill:#4A5FA8;}
</style>
<g id="bgmountain">
	<path class="st0" d="M1.4,546c0,0,1068.5-529.3,1145.8-535.5c77.2-6.1-53.3,7,292.7,149v429l-1438.5,5V546z"/>
	<path class="st1" d="M1440.4,151.1C1103.2,12.8,1227.6,7.6,1152,8l69.3,163.8c6.3,15-9.4,30-25.3,24.1l-81.2-30
		c-11.1-4.2-26-3.2-18.8,15.8c0,0,45,56.5,44.5,80.5s-45.8,36-68.5,59s-154,530.5-154,530.5s-198.2,181.5-99.1,181.5
		c99.1,0,621.6,0,621.6,0V538.6V151.1z"/>
	<path class="st2" d="M1063.8,27c-29.2,14.6-58.4,29.3-87.6,43.9c-2.9,1.4-6,3.1-8.8,4.7c-17.1,9.9-10.2,35.1,9.8,35.3
		c13.8,0.2,27.6-3.1,39.4-9.8c15.9-9,27.6-23.1,42.8-33.5c15.2-10.1,36.7-15.7,51.6-5.6c10.4,7.1,15,19.9,27.1,25.5
		c2.7,1.3,5.6,2,8.6,1.8c15.2-0.7,16.9-18.8,28.8-24.2c7.7-3.4,16.9-0.4,23.6,4.5c6.7,4.9,11.9,11.4,18.8,16.3
		c6.9,4.7,16.3,7.6,23.8,3.6c4.2-2.2,6.9-6.1,11.1-8.5c6.1-3.4,14.4-2.5,20.7,0.5c6.5,3.1,11.7,8,17.1,12.5
		c22.7,19,50.9,32.2,80.6,37.8c5.9,1.1,12.3,2,18-0.7c2.9-1.4,5.4-3.8,6.1-6.9c1.7-6.9-4.8-12.1-10.6-15.9
		c-39.2-25.5-80.2-48.3-122.7-68.5c-37.1-17.5-80.6-43.4-123.3-39.4C1112,3.1,1087.3,15.2,1063.8,27z"/>
</g>
<g id="bgblue">
	<rect y="333.2" class="st3" width="1440" height="827.8"/>
	<path class="st2" d="M1412.7,322.7c-72.3-27.1-145.1-52.3-218.6-75.5c-262.4-83-531-141.3-801.9-173.6
		C324.2,65.4,256.1,59,187.9,54.2C126.2,49.9,61.8,37.4,0,43.8v289.4h1440C1431,329.5,1422,326.1,1412.7,322.7z"/>
	<path class="st3" d="M0,117.4v216.3l1435,10.5l5-11.1C987.6,174.9,476.1,98.8,0,117.4z"/>
</g>
</svg>
